<mxfile host="drawio-plugin" modified="2023-05-18T16:36:26.036Z" agent="5.0 (Windows NT 6.2; Win64; x64) AppleWebKit/537.36 (KHTML, like Gecko) Chrome/104.0.5112.102 Safari/537.36" etag="TuP7nL6VqsI9sS4PmKMy" version="20.5.3" type="embed"><diagram id="R2lEEEUBdFMjLlhIrx00" name="Page-1"><mxGraphModel dx="1923" dy="1247" grid="1" gridSize="10" guides="1" tooltips="1" connect="1" arrows="1" fold="1" page="1" pageScale="1" pageWidth="850" pageHeight="1100" math="0" shadow="0" extFonts="Permanent Marker^https://fonts.googleapis.com/css?family=Permanent+Marker"><root><mxCell id="0"/><mxCell id="1" parent="0"/><mxCell id="bSjY6kH0Yjt8PTvNk5gp-2" value="Genre" style="whiteSpace=wrap;html=1;align=center;" parent="1" vertex="1"><mxGeometry x="710.6" y="402.0000000000001" width="100" height="40" as="geometry"/></mxCell><mxCell id="bSjY6kH0Yjt8PTvNk5gp-5" value="Librarian" style="whiteSpace=wrap;html=1;align=center;" parent="1" vertex="1"><mxGeometry x="-400" y="200" width="100" height="40" as="geometry"/></mxCell><mxCell id="76" style="edgeStyle=none;html=1;exitX=0.75;exitY=1;exitDx=0;exitDy=0;entryX=0.5;entryY=0;entryDx=0;entryDy=0;endArrow=none;endFill=0;" parent="1" source="bSjY6kH0Yjt8PTvNk5gp-6" target="bSjY6kH0Yjt8PTvNk5gp-175" edge="1"><mxGeometry relative="1" as="geometry"/></mxCell><mxCell id="bSjY6kH0Yjt8PTvNk5gp-6" value="Book" style="whiteSpace=wrap;html=1;align=center;" parent="1" vertex="1"><mxGeometry x="240" y="390" width="100" height="40" as="geometry"/></mxCell><mxCell id="bSjY6kH0Yjt8PTvNk5gp-7" value="Borrower" style="whiteSpace=wrap;html=1;align=center;" parent="1" vertex="1"><mxGeometry x="-190" y="640.67" width="100" height="40" as="geometry"/></mxCell><mxCell id="bSjY6kH0Yjt8PTvNk5gp-8" value="Library_Branch" style="whiteSpace=wrap;html=1;align=center;" parent="1" vertex="1"><mxGeometry x="80" y="200" width="100" height="40" as="geometry"/></mxCell><mxCell id="bSjY6kH0Yjt8PTvNk5gp-9" value="Loan" style="whiteSpace=wrap;html=1;align=center;" parent="1" vertex="1"><mxGeometry x="240" y="633.67" width="100" height="40" as="geometry"/></mxCell><mxCell id="bSjY6kH0Yjt8PTvNk5gp-10" value="Reservation" style="whiteSpace=wrap;html=1;align=center;" parent="1" vertex="1"><mxGeometry x="-190" y="400" width="100" height="40" as="geometry"/></mxCell><mxCell id="bSjY6kH0Yjt8PTvNk5gp-21" value="" style="edgeStyle=orthogonalEdgeStyle;rounded=0;orthogonalLoop=1;jettySize=auto;html=1;endArrow=none;endFill=0;" parent="1" source="bSjY6kH0Yjt8PTvNk5gp-11" target="bSjY6kH0Yjt8PTvNk5gp-20" edge="1"><mxGeometry relative="1" as="geometry"/></mxCell><mxCell id="bSjY6kH0Yjt8PTvNk5gp-22" style="rounded=0;orthogonalLoop=1;jettySize=auto;html=1;exitX=0.25;exitY=1;exitDx=0;exitDy=0;endArrow=none;endFill=0;" parent="1" source="bSjY6kH0Yjt8PTvNk5gp-11" target="bSjY6kH0Yjt8PTvNk5gp-18" edge="1"><mxGeometry relative="1" as="geometry"/></mxCell><mxCell id="bSjY6kH0Yjt8PTvNk5gp-23" style="edgeStyle=none;rounded=0;orthogonalLoop=1;jettySize=auto;html=1;exitX=0.75;exitY=1;exitDx=0;exitDy=0;entryX=0.411;entryY=0.013;entryDx=0;entryDy=0;entryPerimeter=0;endArrow=none;endFill=0;" parent="1" source="bSjY6kH0Yjt8PTvNk5gp-11" target="bSjY6kH0Yjt8PTvNk5gp-19" edge="1"><mxGeometry relative="1" as="geometry"/></mxCell><mxCell id="bSjY6kH0Yjt8PTvNk5gp-11" value="Fine" style="whiteSpace=wrap;html=1;align=center;" parent="1" vertex="1"><mxGeometry x="240" y="783.67" width="100" height="40" as="geometry"/></mxCell><mxCell id="bSjY6kH0Yjt8PTvNk5gp-13" value="" style="endArrow=none;html=1;rounded=0;exitX=0.5;exitY=1;exitDx=0;exitDy=0;entryX=0.5;entryY=0;entryDx=0;entryDy=0;" parent="1" source="bSjY6kH0Yjt8PTvNk5gp-9" target="bSjY6kH0Yjt8PTvNk5gp-11" edge="1"><mxGeometry relative="1" as="geometry"><mxPoint x="340" y="693.67" as="sourcePoint"/><mxPoint x="500" y="693.67" as="targetPoint"/></mxGeometry></mxCell><mxCell id="bSjY6kH0Yjt8PTvNk5gp-15" value="0...N" style="resizable=0;html=1;align=right;verticalAlign=bottom;" parent="bSjY6kH0Yjt8PTvNk5gp-13" connectable="0" vertex="1"><mxGeometry x="1" relative="1" as="geometry"><mxPoint x="30" as="offset"/></mxGeometry></mxCell><mxCell id="bSjY6kH0Yjt8PTvNk5gp-16" value="credit" style="shape=rhombus;perimeter=rhombusPerimeter;whiteSpace=wrap;html=1;align=center;" parent="1" vertex="1"><mxGeometry x="230" y="693.67" width="120" height="60" as="geometry"/></mxCell><mxCell id="bSjY6kH0Yjt8PTvNk5gp-18" value="Amount" style="ellipse;whiteSpace=wrap;html=1;align=center;" parent="1" vertex="1"><mxGeometry x="170" y="853.67" width="100" height="40" as="geometry"/></mxCell><mxCell id="bSjY6kH0Yjt8PTvNk5gp-19" value="Paid" style="ellipse;whiteSpace=wrap;html=1;align=center;" parent="1" vertex="1"><mxGeometry x="310" y="853.67" width="100" height="40" as="geometry"/></mxCell><mxCell id="bSjY6kH0Yjt8PTvNk5gp-20" value="Fine_ID" style="ellipse;whiteSpace=wrap;html=1;align=center;fontStyle=4" parent="1" vertex="1"><mxGeometry x="100" y="783.67" width="100" height="40" as="geometry"/></mxCell><mxCell id="bSjY6kH0Yjt8PTvNk5gp-36" value="1" style="resizable=0;html=1;align=right;verticalAlign=bottom;" parent="1" connectable="0" vertex="1"><mxGeometry x="299.99909930915493" y="690.6743817937581" as="geometry"/></mxCell><mxCell id="bSjY6kH0Yjt8PTvNk5gp-37" value="1" style="resizable=0;html=1;align=right;verticalAlign=bottom;" parent="1" connectable="0" vertex="1"><mxGeometry x="299.99909930915493" y="448.00438179375817" as="geometry"/></mxCell><mxCell id="bSjY6kH0Yjt8PTvNk5gp-54" style="edgeStyle=none;rounded=0;orthogonalLoop=1;jettySize=auto;html=1;exitX=0.017;exitY=0.608;exitDx=0;exitDy=0;entryX=1;entryY=0.5;entryDx=0;entryDy=0;endArrow=none;endFill=0;exitPerimeter=0;" parent="1" source="bSjY6kH0Yjt8PTvNk5gp-38" target="bSjY6kH0Yjt8PTvNk5gp-9" edge="1"><mxGeometry relative="1" as="geometry"/></mxCell><mxCell id="bSjY6kH0Yjt8PTvNk5gp-38" value="Loan_ID" style="ellipse;whiteSpace=wrap;html=1;align=center;fontStyle=4" parent="1" vertex="1"><mxGeometry x="390" y="610" width="100" height="40" as="geometry"/></mxCell><mxCell id="11" value="" style="edgeStyle=none;html=1;endArrow=none;endFill=0;" parent="1" source="bSjY6kH0Yjt8PTvNk5gp-43" target="Q7LSnnGv4zC_KHV4gUv7-25" edge="1"><mxGeometry relative="1" as="geometry"/></mxCell><mxCell id="bSjY6kH0Yjt8PTvNk5gp-43" value="Loan_date" style="ellipse;whiteSpace=wrap;html=1;align=center;" parent="1" vertex="1"><mxGeometry x="380" y="540" width="100" height="40" as="geometry"/></mxCell><mxCell id="10" value="" style="edgeStyle=none;html=1;endArrow=none;endFill=0;" parent="1" source="bSjY6kH0Yjt8PTvNk5gp-44" target="Q7LSnnGv4zC_KHV4gUv7-25" edge="1"><mxGeometry relative="1" as="geometry"/></mxCell><mxCell id="bSjY6kH0Yjt8PTvNk5gp-44" value="Due_date" style="ellipse;whiteSpace=wrap;html=1;align=center;" parent="1" vertex="1"><mxGeometry x="100" y="540" width="100" height="40" as="geometry"/></mxCell><mxCell id="bSjY6kH0Yjt8PTvNk5gp-48" style="edgeStyle=none;rounded=0;orthogonalLoop=1;jettySize=auto;html=1;exitX=0;exitY=0;exitDx=0;exitDy=0;entryX=1;entryY=1;entryDx=0;entryDy=0;endArrow=none;endFill=0;" parent="1" source="bSjY6kH0Yjt8PTvNk5gp-47" target="bSjY6kH0Yjt8PTvNk5gp-9" edge="1"><mxGeometry relative="1" as="geometry"/></mxCell><mxCell id="bSjY6kH0Yjt8PTvNk5gp-47" value="Returned_date" style="ellipse;whiteSpace=wrap;html=1;align=center;" parent="1" vertex="1"><mxGeometry x="375" y="713.67" width="100" height="40" as="geometry"/></mxCell><mxCell id="bSjY6kH0Yjt8PTvNk5gp-53" value="has" style="shape=rhombus;perimeter=rhombusPerimeter;whiteSpace=wrap;html=1;align=center;" parent="1" vertex="1"><mxGeometry x="20" y="629.67" width="120" height="60" as="geometry"/></mxCell><mxCell id="bSjY6kH0Yjt8PTvNk5gp-59" style="edgeStyle=none;rounded=0;orthogonalLoop=1;jettySize=auto;html=1;exitX=0.5;exitY=0;exitDx=0;exitDy=0;entryX=0.61;entryY=0.998;entryDx=0;entryDy=0;endArrow=none;endFill=0;entryPerimeter=0;" parent="1" source="bSjY6kH0Yjt8PTvNk5gp-58" target="bSjY6kH0Yjt8PTvNk5gp-7" edge="1"><mxGeometry relative="1" as="geometry"/></mxCell><mxCell id="bSjY6kH0Yjt8PTvNk5gp-58" value="Borrower_ID" style="ellipse;whiteSpace=wrap;html=1;align=center;fontStyle=4" parent="1" vertex="1"><mxGeometry x="-170" y="730" width="100" height="40" as="geometry"/></mxCell><mxCell id="bSjY6kH0Yjt8PTvNk5gp-86" style="edgeStyle=none;rounded=0;orthogonalLoop=1;jettySize=auto;html=1;exitX=0;exitY=0.5;exitDx=0;exitDy=0;entryX=1;entryY=0.5;entryDx=0;entryDy=0;endArrow=none;endFill=0;" parent="1" source="bSjY6kH0Yjt8PTvNk5gp-83" target="bSjY6kH0Yjt8PTvNk5gp-2" edge="1"><mxGeometry relative="1" as="geometry"/></mxCell><mxCell id="bSjY6kH0Yjt8PTvNk5gp-83" value="Genre_ID" style="ellipse;whiteSpace=wrap;html=1;align=center;fontStyle=4" parent="1" vertex="1"><mxGeometry x="850.6" y="410.0000000000001" width="100" height="40" as="geometry"/></mxCell><mxCell id="bSjY6kH0Yjt8PTvNk5gp-85" style="rounded=0;orthogonalLoop=1;jettySize=auto;html=1;exitX=0.5;exitY=1;exitDx=0;exitDy=0;entryX=0.59;entryY=-0.025;entryDx=0;entryDy=0;endArrow=none;endFill=0;entryPerimeter=0;" parent="1" source="bSjY6kH0Yjt8PTvNk5gp-84" target="bSjY6kH0Yjt8PTvNk5gp-2" edge="1"><mxGeometry relative="1" as="geometry"/></mxCell><mxCell id="bSjY6kH0Yjt8PTvNk5gp-84" value="Name" style="ellipse;whiteSpace=wrap;html=1;align=center;" parent="1" vertex="1"><mxGeometry x="740.6" y="322.0000000000001" width="100" height="40" as="geometry"/></mxCell><mxCell id="bSjY6kH0Yjt8PTvNk5gp-101" value="has" style="shape=rhombus;perimeter=rhombusPerimeter;whiteSpace=wrap;html=1;align=center;" parent="1" vertex="1"><mxGeometry x="20" y="390" width="120" height="60" as="geometry"/></mxCell><mxCell id="bSjY6kH0Yjt8PTvNk5gp-107" value="" style="endArrow=none;html=1;rounded=0;exitX=1;exitY=0.5;exitDx=0;exitDy=0;entryX=0;entryY=0.75;entryDx=0;entryDy=0;" parent="1" source="bSjY6kH0Yjt8PTvNk5gp-101" target="bSjY6kH0Yjt8PTvNk5gp-6" edge="1"><mxGeometry relative="1" as="geometry"><mxPoint x="150" y="430" as="sourcePoint"/><mxPoint x="310" y="430" as="targetPoint"/></mxGeometry></mxCell><mxCell id="bSjY6kH0Yjt8PTvNk5gp-108" value="1" style="resizable=0;html=1;align=right;verticalAlign=bottom;" parent="bSjY6kH0Yjt8PTvNk5gp-107" connectable="0" vertex="1"><mxGeometry x="1" relative="1" as="geometry"/></mxCell><mxCell id="bSjY6kH0Yjt8PTvNk5gp-110" value="place" style="shape=rhombus;perimeter=rhombusPerimeter;whiteSpace=wrap;html=1;align=center;" parent="1" vertex="1"><mxGeometry x="-200" y="543.67" width="120" height="60" as="geometry"/></mxCell><mxCell id="bSjY6kH0Yjt8PTvNk5gp-112" value="" style="endArrow=none;html=1;rounded=0;exitX=0.5;exitY=1;exitDx=0;exitDy=0;entryX=0.5;entryY=0;entryDx=0;entryDy=0;" parent="1" source="bSjY6kH0Yjt8PTvNk5gp-110" target="bSjY6kH0Yjt8PTvNk5gp-7" edge="1"><mxGeometry relative="1" as="geometry"><mxPoint x="-50" y="593.67" as="sourcePoint"/><mxPoint x="110" y="593.67" as="targetPoint"/></mxGeometry></mxCell><mxCell id="bSjY6kH0Yjt8PTvNk5gp-113" value="1" style="resizable=0;html=1;align=right;verticalAlign=bottom;" parent="bSjY6kH0Yjt8PTvNk5gp-112" connectable="0" vertex="1"><mxGeometry x="1" relative="1" as="geometry"><mxPoint x="10" as="offset"/></mxGeometry></mxCell><mxCell id="bSjY6kH0Yjt8PTvNk5gp-114" value="" style="endArrow=none;html=1;rounded=0;entryX=0.5;entryY=1;entryDx=0;entryDy=0;exitX=0.5;exitY=0;exitDx=0;exitDy=0;" parent="1" source="bSjY6kH0Yjt8PTvNk5gp-110" target="bSjY6kH0Yjt8PTvNk5gp-10" edge="1"><mxGeometry relative="1" as="geometry"><mxPoint x="-290" y="460" as="sourcePoint"/><mxPoint x="-130" y="460" as="targetPoint"/></mxGeometry></mxCell><mxCell id="bSjY6kH0Yjt8PTvNk5gp-115" value="1...N" style="resizable=0;html=1;align=right;verticalAlign=bottom;" parent="bSjY6kH0Yjt8PTvNk5gp-114" connectable="0" vertex="1"><mxGeometry x="1" relative="1" as="geometry"><mxPoint x="30" y="18" as="offset"/></mxGeometry></mxCell><mxCell id="65" style="edgeStyle=none;html=1;exitX=1;exitY=1;exitDx=0;exitDy=0;entryX=0;entryY=0;entryDx=0;entryDy=0;endArrow=none;endFill=0;" parent="1" source="bSjY6kH0Yjt8PTvNk5gp-120" target="bSjY6kH0Yjt8PTvNk5gp-110" edge="1"><mxGeometry relative="1" as="geometry"/></mxCell><mxCell id="bSjY6kH0Yjt8PTvNk5gp-120" value="Reservation_date" style="ellipse;whiteSpace=wrap;html=1;align=center;" parent="1" vertex="1"><mxGeometry x="-270" y="503.66999999999996" width="100" height="40" as="geometry"/></mxCell><mxCell id="14" value="" style="edgeStyle=none;html=1;endArrow=none;endFill=0;" parent="1" source="bSjY6kH0Yjt8PTvNk5gp-122" target="bSjY6kH0Yjt8PTvNk5gp-10" edge="1"><mxGeometry relative="1" as="geometry"/></mxCell><mxCell id="bSjY6kH0Yjt8PTvNk5gp-122" value="Reservation_ID" style="ellipse;whiteSpace=wrap;html=1;align=center;fontStyle=4" parent="1" vertex="1"><mxGeometry x="-310" y="400" width="100" height="40" as="geometry"/></mxCell><mxCell id="bSjY6kH0Yjt8PTvNk5gp-127" value="Publisher" style="whiteSpace=wrap;html=1;align=center;" parent="1" vertex="1"><mxGeometry x="240" y="200" width="100" height="40" as="geometry"/></mxCell><mxCell id="bSjY6kH0Yjt8PTvNk5gp-128" value="publish" style="shape=rhombus;perimeter=rhombusPerimeter;whiteSpace=wrap;html=1;align=center;" parent="1" vertex="1"><mxGeometry x="230" y="290" width="120" height="60" as="geometry"/></mxCell><mxCell id="bSjY6kH0Yjt8PTvNk5gp-129" value="" style="endArrow=none;html=1;rounded=0;entryX=0.5;entryY=0;entryDx=0;entryDy=0;exitX=0.5;exitY=1;exitDx=0;exitDy=0;" parent="1" source="bSjY6kH0Yjt8PTvNk5gp-128" target="bSjY6kH0Yjt8PTvNk5gp-6" edge="1"><mxGeometry relative="1" as="geometry"><mxPoint x="180" y="370" as="sourcePoint"/><mxPoint x="340" y="370" as="targetPoint"/></mxGeometry></mxCell><mxCell id="bSjY6kH0Yjt8PTvNk5gp-130" value="N" style="resizable=0;html=1;align=right;verticalAlign=bottom;" parent="bSjY6kH0Yjt8PTvNk5gp-129" connectable="0" vertex="1"><mxGeometry x="1" relative="1" as="geometry"><mxPoint x="11" y="1" as="offset"/></mxGeometry></mxCell><mxCell id="bSjY6kH0Yjt8PTvNk5gp-131" value="" style="endArrow=none;html=1;rounded=0;entryX=0.5;entryY=1;entryDx=0;entryDy=0;exitX=0.5;exitY=0;exitDx=0;exitDy=0;" parent="1" source="bSjY6kH0Yjt8PTvNk5gp-128" target="bSjY6kH0Yjt8PTvNk5gp-127" edge="1"><mxGeometry relative="1" as="geometry"><mxPoint x="300" y="280" as="sourcePoint"/><mxPoint x="290" y="260" as="targetPoint"/></mxGeometry></mxCell><mxCell id="bSjY6kH0Yjt8PTvNk5gp-132" value="1" style="resizable=0;html=1;align=right;verticalAlign=top;" parent="bSjY6kH0Yjt8PTvNk5gp-131" connectable="0" vertex="1"><mxGeometry x="1" relative="1" as="geometry"><mxPoint x="10" y="-6" as="offset"/></mxGeometry></mxCell><mxCell id="bSjY6kH0Yjt8PTvNk5gp-134" style="edgeStyle=none;rounded=0;orthogonalLoop=1;jettySize=auto;html=1;exitX=0.5;exitY=1;exitDx=0;exitDy=0;entryX=0.75;entryY=0;entryDx=0;entryDy=0;endArrow=none;endFill=0;" parent="1" source="bSjY6kH0Yjt8PTvNk5gp-133" target="bSjY6kH0Yjt8PTvNk5gp-127" edge="1"><mxGeometry relative="1" as="geometry"/></mxCell><mxCell id="bSjY6kH0Yjt8PTvNk5gp-133" value="Publisher_ID" style="ellipse;whiteSpace=wrap;html=1;align=center;fontStyle=4" parent="1" vertex="1"><mxGeometry x="310" y="120" width="100" height="40" as="geometry"/></mxCell><mxCell id="bSjY6kH0Yjt8PTvNk5gp-142" value="store" style="shape=rhombus;perimeter=rhombusPerimeter;whiteSpace=wrap;html=1;align=center;" parent="1" vertex="1"><mxGeometry x="70" y="290" width="120" height="60" as="geometry"/></mxCell><mxCell id="bSjY6kH0Yjt8PTvNk5gp-150" style="edgeStyle=none;rounded=0;orthogonalLoop=1;jettySize=auto;html=1;exitX=1;exitY=1;exitDx=0;exitDy=0;entryX=0.5;entryY=0;entryDx=0;entryDy=0;endArrow=none;endFill=0;" parent="1" source="bSjY6kH0Yjt8PTvNk5gp-149" target="bSjY6kH0Yjt8PTvNk5gp-8" edge="1"><mxGeometry relative="1" as="geometry"/></mxCell><mxCell id="bSjY6kH0Yjt8PTvNk5gp-149" value="Branch_ID" style="ellipse;whiteSpace=wrap;html=1;align=center;fontStyle=4" parent="1" vertex="1"><mxGeometry x="-20" y="130" width="100" height="40" as="geometry"/></mxCell><mxCell id="55" style="edgeStyle=none;html=1;exitX=1;exitY=0.5;exitDx=0;exitDy=0;entryX=0;entryY=0.5;entryDx=0;entryDy=0;endArrow=none;endFill=0;" parent="1" source="bSjY6kH0Yjt8PTvNk5gp-151" target="54" edge="1"><mxGeometry relative="1" as="geometry"/></mxCell><mxCell id="bSjY6kH0Yjt8PTvNk5gp-151" value="Name" style="ellipse;whiteSpace=wrap;html=1;align=center;" parent="1" vertex="1"><mxGeometry x="20" y="40" width="100" height="40" as="geometry"/></mxCell><mxCell id="67" style="edgeStyle=none;html=1;exitX=1;exitY=0;exitDx=0;exitDy=0;entryX=0.318;entryY=0.958;entryDx=0;entryDy=0;entryPerimeter=0;endArrow=none;endFill=0;" parent="1" source="bSjY6kH0Yjt8PTvNk5gp-155" target="66" edge="1"><mxGeometry relative="1" as="geometry"/></mxCell><mxCell id="bSjY6kH0Yjt8PTvNk5gp-155" value="work" style="shape=rhombus;perimeter=rhombusPerimeter;whiteSpace=wrap;html=1;align=center;" parent="1" vertex="1"><mxGeometry x="-230" y="190" width="120" height="60" as="geometry"/></mxCell><mxCell id="31" style="edgeStyle=none;html=1;exitX=1;exitY=0.5;exitDx=0;exitDy=0;entryX=0;entryY=0.5;entryDx=0;entryDy=0;endArrow=none;endFill=0;" parent="1" source="bSjY6kH0Yjt8PTvNk5gp-163" target="bSjY6kH0Yjt8PTvNk5gp-5" edge="1"><mxGeometry relative="1" as="geometry"/></mxCell><mxCell id="bSjY6kH0Yjt8PTvNk5gp-163" value="Librarian_ID" style="ellipse;whiteSpace=wrap;html=1;align=center;fontStyle=4" parent="1" vertex="1"><mxGeometry x="-540" y="200" width="100" height="40" as="geometry"/></mxCell><mxCell id="44" style="edgeStyle=none;html=1;exitX=1;exitY=0.5;exitDx=0;exitDy=0;endArrow=none;endFill=0;entryX=0;entryY=0;entryDx=0;entryDy=0;" parent="1" source="bSjY6kH0Yjt8PTvNk5gp-165" target="41" edge="1"><mxGeometry relative="1" as="geometry"><Array as="points"><mxPoint x="-585" y="406.33"/></Array></mxGeometry></mxCell><mxCell id="bSjY6kH0Yjt8PTvNk5gp-165" value="First_name" style="ellipse;whiteSpace=wrap;html=1;align=center;" parent="1" vertex="1"><mxGeometry x="-705" y="380.00000000000006" width="100" height="40" as="geometry"/></mxCell><mxCell id="43" style="edgeStyle=none;html=1;exitX=0.5;exitY=1;exitDx=0;exitDy=0;entryX=0.5;entryY=0;entryDx=0;entryDy=0;endArrow=none;endFill=0;" parent="1" source="bSjY6kH0Yjt8PTvNk5gp-167" target="41" edge="1"><mxGeometry relative="1" as="geometry"/></mxCell><mxCell id="bSjY6kH0Yjt8PTvNk5gp-167" value="Last_name" style="ellipse;whiteSpace=wrap;html=1;align=center;" parent="1" vertex="1"><mxGeometry x="-585" y="336.33" width="100" height="40" as="geometry"/></mxCell><mxCell id="39" style="edgeStyle=none;html=1;exitX=0;exitY=0;exitDx=0;exitDy=0;entryX=0.75;entryY=1;entryDx=0;entryDy=0;endArrow=none;endFill=0;" parent="1" source="bSjY6kH0Yjt8PTvNk5gp-169" target="36" edge="1"><mxGeometry relative="1" as="geometry"/></mxCell><mxCell id="bSjY6kH0Yjt8PTvNk5gp-169" value="EMail" style="ellipse;whiteSpace=wrap;html=1;align=center;" parent="1" vertex="1"><mxGeometry x="-510" y="540" width="100" height="40" as="geometry"/></mxCell><mxCell id="38" style="edgeStyle=none;html=1;exitX=1;exitY=0;exitDx=0;exitDy=0;entryX=0.25;entryY=1;entryDx=0;entryDy=0;endArrow=none;endFill=0;" parent="1" source="bSjY6kH0Yjt8PTvNk5gp-171" target="36" edge="1"><mxGeometry relative="1" as="geometry"/></mxCell><mxCell id="bSjY6kH0Yjt8PTvNk5gp-171" value="Phone" style="ellipse;whiteSpace=wrap;html=1;align=center;" parent="1" vertex="1"><mxGeometry x="-660" y="540.0000000000001" width="100" height="40" as="geometry"/></mxCell><mxCell id="bSjY6kH0Yjt8PTvNk5gp-175" value="Book_ID" style="ellipse;whiteSpace=wrap;html=1;align=center;fontStyle=4" parent="1" vertex="1"><mxGeometry x="310" y="478.99999999999994" width="100" height="40" as="geometry"/></mxCell><mxCell id="bSjY6kH0Yjt8PTvNk5gp-180" style="edgeStyle=none;rounded=0;orthogonalLoop=1;jettySize=auto;html=1;exitX=0;exitY=0;exitDx=0;exitDy=0;entryX=0.884;entryY=1.003;entryDx=0;entryDy=0;endArrow=none;endFill=0;entryPerimeter=0;" parent="1" source="bSjY6kH0Yjt8PTvNk5gp-179" target="bSjY6kH0Yjt8PTvNk5gp-6" edge="1"><mxGeometry relative="1" as="geometry"/></mxCell><mxCell id="bSjY6kH0Yjt8PTvNk5gp-179" value="Title" style="ellipse;whiteSpace=wrap;html=1;align=center;" parent="1" vertex="1"><mxGeometry x="375" y="429.99999999999994" width="100" height="40" as="geometry"/></mxCell><mxCell id="bSjY6kH0Yjt8PTvNk5gp-188" style="edgeStyle=none;rounded=0;orthogonalLoop=1;jettySize=auto;html=1;exitX=0;exitY=0;exitDx=0;exitDy=0;entryX=0.807;entryY=0.686;entryDx=0;entryDy=0;endArrow=none;endFill=0;entryPerimeter=0;" parent="1" source="bSjY6kH0Yjt8PTvNk5gp-187" target="bSjY6kH0Yjt8PTvNk5gp-128" edge="1"><mxGeometry relative="1" as="geometry"/></mxCell><mxCell id="bSjY6kH0Yjt8PTvNk5gp-187" value="Publish_year" style="ellipse;whiteSpace=wrap;html=1;align=center;" parent="1" vertex="1"><mxGeometry x="340" y="339.99999999999994" width="100" height="40" as="geometry"/></mxCell><mxCell id="78" style="edgeStyle=none;html=1;exitX=0.644;exitY=0;exitDx=0;exitDy=0;entryX=0.25;entryY=1;entryDx=0;entryDy=0;endArrow=none;endFill=0;exitPerimeter=0;" parent="1" source="bSjY6kH0Yjt8PTvNk5gp-189" target="bSjY6kH0Yjt8PTvNk5gp-6" edge="1"><mxGeometry relative="1" as="geometry"/></mxCell><mxCell id="bSjY6kH0Yjt8PTvNk5gp-189" value="ISBN" style="ellipse;whiteSpace=wrap;html=1;align=center;" parent="1" vertex="1"><mxGeometry x="180" y="478.99999999999994" width="100" height="40" as="geometry"/></mxCell><mxCell id="56" value="" style="edgeStyle=none;html=1;endArrow=none;endFill=0;" parent="1" source="Q7LSnnGv4zC_KHV4gUv7-2" target="54" edge="1"><mxGeometry relative="1" as="geometry"/></mxCell><mxCell id="Q7LSnnGv4zC_KHV4gUv7-2" value="Address" style="ellipse;shape=doubleEllipse;margin=3;whiteSpace=wrap;html=1;align=center;" parent="1" vertex="1"><mxGeometry x="160" y="-30" width="100" height="40" as="geometry"/></mxCell><mxCell id="37" style="edgeStyle=none;html=1;exitX=1;exitY=0.5;exitDx=0;exitDy=0;entryX=0;entryY=0.5;entryDx=0;entryDy=0;endArrow=none;endFill=0;" parent="1" source="Q7LSnnGv4zC_KHV4gUv7-3" target="36" edge="1"><mxGeometry relative="1" as="geometry"/></mxCell><mxCell id="Q7LSnnGv4zC_KHV4gUv7-3" value="Address" style="ellipse;shape=doubleEllipse;margin=3;whiteSpace=wrap;html=1;align=center;" parent="1" vertex="1"><mxGeometry x="-760" y="461.33" width="100" height="40" as="geometry"/></mxCell><mxCell id="33" style="edgeStyle=none;html=1;exitX=0.909;exitY=0.787;exitDx=0;exitDy=0;endArrow=none;endFill=0;entryX=0.323;entryY=0.031;entryDx=0;entryDy=0;entryPerimeter=0;exitPerimeter=0;" parent="1" source="Q7LSnnGv4zC_KHV4gUv7-6" target="Q7LSnnGv4zC_KHV4gUv7-3" edge="1"><mxGeometry relative="1" as="geometry"/></mxCell><mxCell id="Q7LSnnGv4zC_KHV4gUv7-6" value="Street" style="ellipse;whiteSpace=wrap;html=1;align=center;" parent="1" vertex="1"><mxGeometry x="-840" y="406.3300000000001" width="100" height="40" as="geometry"/></mxCell><mxCell id="34" style="edgeStyle=none;html=1;exitX=0.985;exitY=0.346;exitDx=0;exitDy=0;endArrow=none;endFill=0;entryX=0;entryY=1;entryDx=0;entryDy=0;exitPerimeter=0;" parent="1" source="Q7LSnnGv4zC_KHV4gUv7-8" target="Q7LSnnGv4zC_KHV4gUv7-3" edge="1"><mxGeometry relative="1" as="geometry"/></mxCell><mxCell id="Q7LSnnGv4zC_KHV4gUv7-8" value="Number" style="ellipse;whiteSpace=wrap;html=1;align=center;" parent="1" vertex="1"><mxGeometry x="-890" y="493.00000000000006" width="100" height="40" as="geometry"/></mxCell><mxCell id="35" style="edgeStyle=none;html=1;exitX=0.742;exitY=0.1;exitDx=0;exitDy=0;entryX=0.5;entryY=1;entryDx=0;entryDy=0;endArrow=none;endFill=0;exitPerimeter=0;" parent="1" source="Q7LSnnGv4zC_KHV4gUv7-11" target="Q7LSnnGv4zC_KHV4gUv7-3" edge="1"><mxGeometry relative="1" as="geometry"/></mxCell><mxCell id="Q7LSnnGv4zC_KHV4gUv7-11" value="City" style="ellipse;whiteSpace=wrap;html=1;align=center;" parent="1" vertex="1"><mxGeometry x="-800" y="540.0000000000001" width="100" height="40" as="geometry"/></mxCell><mxCell id="Q7LSnnGv4zC_KHV4gUv7-16" style="edgeStyle=none;rounded=0;orthogonalLoop=1;jettySize=auto;html=1;exitX=1;exitY=1;exitDx=0;exitDy=0;entryX=0.226;entryY=0.07;entryDx=0;entryDy=0;entryPerimeter=0;endArrow=none;endFill=0;" parent="1" source="Q7LSnnGv4zC_KHV4gUv7-13" target="Q7LSnnGv4zC_KHV4gUv7-2" edge="1"><mxGeometry relative="1" as="geometry"/></mxCell><mxCell id="Q7LSnnGv4zC_KHV4gUv7-13" value="Street" style="ellipse;whiteSpace=wrap;html=1;align=center;" parent="1" vertex="1"><mxGeometry x="85" y="-80" width="100" height="40" as="geometry"/></mxCell><mxCell id="Q7LSnnGv4zC_KHV4gUv7-17" style="edgeStyle=none;rounded=0;orthogonalLoop=1;jettySize=auto;html=1;exitX=0.5;exitY=1;exitDx=0;exitDy=0;entryX=0.5;entryY=0;entryDx=0;entryDy=0;endArrow=none;endFill=0;" parent="1" source="Q7LSnnGv4zC_KHV4gUv7-14" target="Q7LSnnGv4zC_KHV4gUv7-2" edge="1"><mxGeometry relative="1" as="geometry"/></mxCell><mxCell id="Q7LSnnGv4zC_KHV4gUv7-14" value="Number" style="ellipse;whiteSpace=wrap;html=1;align=center;" parent="1" vertex="1"><mxGeometry x="175" y="-120" width="100" height="40" as="geometry"/></mxCell><mxCell id="Q7LSnnGv4zC_KHV4gUv7-18" style="edgeStyle=none;rounded=0;orthogonalLoop=1;jettySize=auto;html=1;exitX=0;exitY=1;exitDx=0;exitDy=0;entryX=0.918;entryY=0.2;entryDx=0;entryDy=0;entryPerimeter=0;endArrow=none;endFill=0;" parent="1" source="Q7LSnnGv4zC_KHV4gUv7-15" target="Q7LSnnGv4zC_KHV4gUv7-2" edge="1"><mxGeometry relative="1" as="geometry"/></mxCell><mxCell id="Q7LSnnGv4zC_KHV4gUv7-15" value="City" style="ellipse;whiteSpace=wrap;html=1;align=center;" parent="1" vertex="1"><mxGeometry x="255" y="-70" width="100" height="40" as="geometry"/></mxCell><mxCell id="Q7LSnnGv4zC_KHV4gUv7-23" style="edgeStyle=none;rounded=0;orthogonalLoop=1;jettySize=auto;html=1;exitX=1;exitY=0.5;exitDx=0;exitDy=0;entryX=0;entryY=0.5;entryDx=0;entryDy=0;endArrow=none;endFill=0;" parent="1" edge="1"><mxGeometry relative="1" as="geometry"><mxPoint x="-430" y="649.6700000000001" as="sourcePoint"/></mxGeometry></mxCell><mxCell id="Q7LSnnGv4zC_KHV4gUv7-24" style="edgeStyle=none;rounded=0;orthogonalLoop=1;jettySize=auto;html=1;exitX=1;exitY=1;exitDx=0;exitDy=0;endArrow=none;endFill=0;" parent="1" edge="1"><mxGeometry relative="1" as="geometry"><mxPoint x="-394.644660940673" y="604.1421356237311" as="sourcePoint"/></mxGeometry></mxCell><mxCell id="Q7LSnnGv4zC_KHV4gUv7-22" style="edgeStyle=none;rounded=0;orthogonalLoop=1;jettySize=auto;html=1;exitX=1;exitY=0;exitDx=0;exitDy=0;entryX=0;entryY=1;entryDx=0;entryDy=0;endArrow=none;endFill=0;" parent="1" edge="1"><mxGeometry relative="1" as="geometry"><mxPoint x="-414.644660940673" y="695.5278643762695" as="sourcePoint"/></mxGeometry></mxCell><mxCell id="Q7LSnnGv4zC_KHV4gUv7-25" value="loan" style="shape=rhombus;perimeter=rhombusPerimeter;whiteSpace=wrap;html=1;align=center;" parent="1" vertex="1"><mxGeometry x="230" y="530" width="120" height="60" as="geometry"/></mxCell><mxCell id="Q7LSnnGv4zC_KHV4gUv7-26" value="" style="endArrow=none;html=1;rounded=0;exitX=0.5;exitY=1;exitDx=0;exitDy=0;entryX=0.5;entryY=0;entryDx=0;entryDy=0;" parent="1" source="bSjY6kH0Yjt8PTvNk5gp-6" target="Q7LSnnGv4zC_KHV4gUv7-25" edge="1"><mxGeometry relative="1" as="geometry"><mxPoint x="290" y="430" as="sourcePoint"/><mxPoint x="290" y="633.6700000000001" as="targetPoint"/></mxGeometry></mxCell><mxCell id="2" value="" style="shape=link;html=1;rounded=0;entryX=0;entryY=0.5;entryDx=0;entryDy=0;exitX=1;exitY=0.5;exitDx=0;exitDy=0;" parent="1" source="bSjY6kH0Yjt8PTvNk5gp-10" target="bSjY6kH0Yjt8PTvNk5gp-101" edge="1"><mxGeometry relative="1" as="geometry"><mxPoint x="-60" y="480" as="sourcePoint"/><mxPoint x="100" y="480" as="targetPoint"/></mxGeometry></mxCell><mxCell id="3" value="N" style="resizable=0;html=1;align=right;verticalAlign=bottom;" parent="2" connectable="0" vertex="1"><mxGeometry x="1" relative="1" as="geometry"><mxPoint x="-100" as="offset"/></mxGeometry></mxCell><mxCell id="4" value="" style="shape=link;html=1;rounded=0;entryX=0.5;entryY=1;entryDx=0;entryDy=0;exitX=0.5;exitY=0;exitDx=0;exitDy=0;" parent="1" source="bSjY6kH0Yjt8PTvNk5gp-9" target="Q7LSnnGv4zC_KHV4gUv7-25" edge="1"><mxGeometry relative="1" as="geometry"><mxPoint x="140" y="603.67" as="sourcePoint"/><mxPoint x="250" y="603.67" as="targetPoint"/></mxGeometry></mxCell><mxCell id="5" value="N" style="resizable=0;html=1;align=right;verticalAlign=bottom;" parent="4" connectable="0" vertex="1"><mxGeometry x="1" relative="1" as="geometry"><mxPoint x="14" y="46" as="offset"/></mxGeometry></mxCell><mxCell id="6" value="" style="shape=link;html=1;rounded=0;entryX=0.5;entryY=1;entryDx=0;entryDy=0;edgeStyle=orthogonalEdgeStyle;" parent="1" target="bSjY6kH0Yjt8PTvNk5gp-142" edge="1"><mxGeometry relative="1" as="geometry"><mxPoint x="260" y="390" as="sourcePoint"/><mxPoint x="150" y="400" as="targetPoint"/><Array as="points"><mxPoint x="260" y="389"/><mxPoint x="260" y="360"/><mxPoint x="130" y="360"/></Array></mxGeometry></mxCell><mxCell id="7" value="N" style="resizable=0;html=1;align=right;verticalAlign=bottom;" parent="6" connectable="0" vertex="1"><mxGeometry x="1" relative="1" as="geometry"><mxPoint x="144" y="41" as="offset"/></mxGeometry></mxCell><mxCell id="9" style="edgeStyle=none;html=1;exitX=0;exitY=1;exitDx=0;exitDy=0;entryX=1;entryY=0;entryDx=0;entryDy=0;endArrow=none;endFill=0;" parent="1" source="8" target="bSjY6kH0Yjt8PTvNk5gp-128" edge="1"><mxGeometry relative="1" as="geometry"/></mxCell><mxCell id="8" value="Version" style="ellipse;whiteSpace=wrap;html=1;align=center;" parent="1" vertex="1"><mxGeometry x="325" y="259.99999999999994" width="100" height="40" as="geometry"/></mxCell><mxCell id="16" value="has" style="shape=rhombus;perimeter=rhombusPerimeter;whiteSpace=wrap;html=1;align=center;" parent="1" vertex="1"><mxGeometry x="480" y="390" width="120" height="60" as="geometry"/></mxCell><mxCell id="17" value="" style="endArrow=none;html=1;rounded=0;exitX=0;exitY=0.5;exitDx=0;exitDy=0;entryX=1;entryY=0.75;entryDx=0;entryDy=0;" parent="1" source="16" target="bSjY6kH0Yjt8PTvNk5gp-6" edge="1"><mxGeometry relative="1" as="geometry"><mxPoint x="440" y="419" as="sourcePoint"/><mxPoint x="370" y="419" as="targetPoint"/></mxGeometry></mxCell><mxCell id="18" value="N" style="resizable=0;html=1;align=right;verticalAlign=bottom;" parent="17" connectable="0" vertex="1"><mxGeometry x="1" relative="1" as="geometry"><mxPoint x="11" as="offset"/></mxGeometry></mxCell><mxCell id="20" value="" style="endArrow=none;html=1;rounded=0;exitX=1;exitY=0.5;exitDx=0;exitDy=0;entryX=0.003;entryY=0.462;entryDx=0;entryDy=0;entryPerimeter=0;" parent="1" source="16" target="bSjY6kH0Yjt8PTvNk5gp-2" edge="1"><mxGeometry relative="1" as="geometry"><mxPoint x="600" y="419.71" as="sourcePoint"/><mxPoint x="740" y="419.71" as="targetPoint"/></mxGeometry></mxCell><mxCell id="21" value="N" style="resizable=0;html=1;align=right;verticalAlign=bottom;" parent="20" connectable="0" vertex="1"><mxGeometry x="1" relative="1" as="geometry"><mxPoint x="-1" y="2" as="offset"/></mxGeometry></mxCell><mxCell id="24" value="" style="endArrow=none;html=1;rounded=0;exitX=0.5;exitY=0;exitDx=0;exitDy=0;entryX=0.5;entryY=1;entryDx=0;entryDy=0;" parent="1" source="bSjY6kH0Yjt8PTvNk5gp-142" target="bSjY6kH0Yjt8PTvNk5gp-8" edge="1"><mxGeometry relative="1" as="geometry"><mxPoint x="130" y="270" as="sourcePoint"/><mxPoint x="130" y="260" as="targetPoint"/></mxGeometry></mxCell><mxCell id="25" value="1" style="resizable=0;html=1;align=right;verticalAlign=top;" parent="24" connectable="0" vertex="1"><mxGeometry x="1" relative="1" as="geometry"><mxPoint x="10" y="-6" as="offset"/></mxGeometry></mxCell><mxCell id="28" value="" style="endArrow=none;html=1;rounded=0;exitX=1;exitY=0.5;exitDx=0;exitDy=0;entryX=0;entryY=0.5;entryDx=0;entryDy=0;" parent="1" source="bSjY6kH0Yjt8PTvNk5gp-155" target="bSjY6kH0Yjt8PTvNk5gp-8" edge="1"><mxGeometry relative="1" as="geometry"><mxPoint x="-80" y="220" as="sourcePoint"/><mxPoint x="-10" y="219" as="targetPoint"/></mxGeometry></mxCell><mxCell id="29" value="N" style="resizable=0;html=1;align=right;verticalAlign=bottom;" parent="28" connectable="0" vertex="1"><mxGeometry x="1" relative="1" as="geometry"><mxPoint x="-1" as="offset"/></mxGeometry></mxCell><mxCell id="50" style="edgeStyle=none;html=1;exitX=1;exitY=0.5;exitDx=0;exitDy=0;entryX=0.077;entryY=0.731;entryDx=0;entryDy=0;endArrow=none;endFill=0;entryPerimeter=0;" parent="1" source="36" target="47" edge="1"><mxGeometry relative="1" as="geometry"/></mxCell><mxCell id="36" value="Person" style="whiteSpace=wrap;html=1;align=center;" parent="1" vertex="1"><mxGeometry x="-585" y="486.33" width="100" height="40" as="geometry"/></mxCell><mxCell id="46" style="edgeStyle=none;html=1;exitX=0.5;exitY=1;exitDx=0;exitDy=0;entryX=0.5;entryY=0;entryDx=0;entryDy=0;endArrow=none;endFill=0;" parent="1" source="41" target="36" edge="1"><mxGeometry relative="1" as="geometry"/></mxCell><mxCell id="41" value="Name" style="ellipse;shape=doubleEllipse;margin=3;whiteSpace=wrap;html=1;align=center;" parent="1" vertex="1"><mxGeometry x="-585" y="406.33" width="100" height="40" as="geometry"/></mxCell><mxCell id="51" style="edgeStyle=none;html=1;exitX=1;exitY=1;exitDx=0;exitDy=0;entryX=0;entryY=0.5;entryDx=0;entryDy=0;endArrow=none;endFill=0;" parent="1" source="47" target="bSjY6kH0Yjt8PTvNk5gp-7" edge="1"><mxGeometry relative="1" as="geometry"/></mxCell><mxCell id="53" style="edgeStyle=none;html=1;entryX=0.5;entryY=1;entryDx=0;entryDy=0;endArrow=none;endFill=0;exitX=0.5;exitY=0;exitDx=0;exitDy=0;" parent="1" source="47" target="bSjY6kH0Yjt8PTvNk5gp-5" edge="1"><mxGeometry relative="1" as="geometry"><mxPoint x="-380" y="490" as="sourcePoint"/></mxGeometry></mxCell><mxCell id="91" style="rounded=0;orthogonalLoop=1;jettySize=auto;html=1;exitX=0.954;exitY=0.285;exitDx=0;exitDy=0;entryX=0;entryY=0.5;entryDx=0;entryDy=0;endArrow=none;endFill=0;exitPerimeter=0;" edge="1" parent="1" source="47" target="90"><mxGeometry relative="1" as="geometry"/></mxCell><mxCell id="47" value="o" style="ellipse;whiteSpace=wrap;html=1;aspect=fixed;" parent="1" vertex="1"><mxGeometry x="-390" y="373.99999999999994" width="26" height="26" as="geometry"/></mxCell><mxCell id="54" value="Organization" style="whiteSpace=wrap;html=1;align=center;" parent="1" vertex="1"><mxGeometry x="160" y="49.99999999999994" width="100" height="40" as="geometry"/></mxCell><mxCell id="58" style="edgeStyle=none;html=1;exitX=1;exitY=1;exitDx=0;exitDy=0;entryX=0.25;entryY=0;entryDx=0;entryDy=0;endArrow=none;endFill=0;" parent="1" source="57" target="bSjY6kH0Yjt8PTvNk5gp-127" edge="1"><mxGeometry relative="1" as="geometry"/></mxCell><mxCell id="59" style="edgeStyle=none;html=1;exitX=0;exitY=1;exitDx=0;exitDy=0;entryX=0.75;entryY=0;entryDx=0;entryDy=0;endArrow=none;endFill=0;" parent="1" source="57" target="bSjY6kH0Yjt8PTvNk5gp-8" edge="1"><mxGeometry relative="1" as="geometry"/></mxCell><mxCell id="60" style="edgeStyle=none;html=1;exitX=0.5;exitY=0;exitDx=0;exitDy=0;entryX=0.5;entryY=1;entryDx=0;entryDy=0;endArrow=none;endFill=0;" parent="1" source="57" target="54" edge="1"><mxGeometry relative="1" as="geometry"/></mxCell><mxCell id="57" value="d" style="ellipse;whiteSpace=wrap;html=1;aspect=fixed;" parent="1" vertex="1"><mxGeometry x="197" y="143.99999999999994" width="26" height="26" as="geometry"/></mxCell><mxCell id="62" style="edgeStyle=none;html=1;exitX=0.06;exitY=0.708;exitDx=0;exitDy=0;entryX=1;entryY=0.5;entryDx=0;entryDy=0;endArrow=none;endFill=0;exitPerimeter=0;" parent="1" source="61" target="54" edge="1"><mxGeometry relative="1" as="geometry"/></mxCell><mxCell id="61" value="Organization_ID" style="ellipse;whiteSpace=wrap;html=1;align=center;fontStyle=4" parent="1" vertex="1"><mxGeometry x="300" y="30" width="100" height="40" as="geometry"/></mxCell><mxCell id="64" style="edgeStyle=none;html=1;exitX=0.5;exitY=1;exitDx=0;exitDy=0;entryX=0;entryY=0;entryDx=0;entryDy=0;endArrow=none;endFill=0;" parent="1" source="63" target="bSjY6kH0Yjt8PTvNk5gp-155" edge="1"><mxGeometry relative="1" as="geometry"/></mxCell><mxCell id="63" value="Salary" style="ellipse;whiteSpace=wrap;html=1;align=center;" parent="1" vertex="1"><mxGeometry x="-270" y="104" width="100" height="40" as="geometry"/></mxCell><mxCell id="66" value="Start" style="ellipse;whiteSpace=wrap;html=1;align=center;" parent="1" vertex="1"><mxGeometry x="-150" y="110" width="100" height="40" as="geometry"/></mxCell><mxCell id="69" style="edgeStyle=none;html=1;entryX=0;entryY=1;entryDx=0;entryDy=0;endArrow=none;endFill=0;exitX=0.652;exitY=0.042;exitDx=0;exitDy=0;exitPerimeter=0;" parent="1" source="68" target="bSjY6kH0Yjt8PTvNk5gp-155" edge="1"><mxGeometry relative="1" as="geometry"/></mxCell><mxCell id="68" value="End" style="ellipse;whiteSpace=wrap;html=1;align=center;" parent="1" vertex="1"><mxGeometry x="-280" y="260" width="100" height="40" as="geometry"/></mxCell><mxCell id="70" value="" style="endArrow=none;html=1;rounded=0;exitX=0;exitY=0.5;exitDx=0;exitDy=0;entryX=1;entryY=0.5;entryDx=0;entryDy=0;" parent="1" source="bSjY6kH0Yjt8PTvNk5gp-155" target="bSjY6kH0Yjt8PTvNk5gp-5" edge="1"><mxGeometry relative="1" as="geometry"><mxPoint x="-149.99999999999955" y="219.92" as="sourcePoint"/><mxPoint x="-289.99999999999955" y="219.92" as="targetPoint"/></mxGeometry></mxCell><mxCell id="71" value="1" style="resizable=0;html=1;align=right;verticalAlign=bottom;" parent="70" connectable="0" vertex="1"><mxGeometry x="1" relative="1" as="geometry"><mxPoint x="10" as="offset"/></mxGeometry></mxCell><mxCell id="73" style="edgeStyle=none;html=1;exitX=0.5;exitY=0;exitDx=0;exitDy=0;entryX=0.5;entryY=1;entryDx=0;entryDy=0;endArrow=none;endFill=0;" parent="1" source="72" target="36" edge="1"><mxGeometry relative="1" as="geometry"/></mxCell><mxCell id="72" value="Person_ID" style="ellipse;whiteSpace=wrap;html=1;align=center;fontStyle=4" parent="1" vertex="1"><mxGeometry x="-585" y="600.6700000000001" width="100" height="40" as="geometry"/></mxCell><mxCell id="74" value="waited by" style="shape=rhombus;perimeter=rhombusPerimeter;whiteSpace=wrap;html=1;align=center;" parent="1" vertex="1"><mxGeometry x="-20" y="509.99999999999994" width="120" height="60" as="geometry"/></mxCell><mxCell id="79" value="" style="endArrow=none;html=1;rounded=0;exitX=1;exitY=0;exitDx=0;exitDy=0;" parent="1" source="74" edge="1"><mxGeometry relative="1" as="geometry"><mxPoint x="80" y="516.3299999999999" as="sourcePoint"/><mxPoint x="250" y="430" as="targetPoint"/></mxGeometry></mxCell><mxCell id="80" value="N" style="resizable=0;html=1;align=right;verticalAlign=bottom;" parent="79" connectable="0" vertex="1"><mxGeometry x="1" relative="1" as="geometry"><mxPoint x="-11" y="9" as="offset"/></mxGeometry></mxCell><mxCell id="82" value="" style="endArrow=none;html=1;rounded=0;exitX=1;exitY=0.5;exitDx=0;exitDy=0;" parent="1" source="bSjY6kH0Yjt8PTvNk5gp-53" edge="1"><mxGeometry relative="1" as="geometry"><mxPoint x="150" y="660.47" as="sourcePoint"/><mxPoint x="240" y="660" as="targetPoint"/></mxGeometry></mxCell><mxCell id="83" value="N" style="resizable=0;html=1;align=right;verticalAlign=bottom;" parent="82" connectable="0" vertex="1"><mxGeometry x="1" relative="1" as="geometry"><mxPoint x="-1" as="offset"/></mxGeometry></mxCell><mxCell id="84" value="" style="endArrow=none;html=1;rounded=0;entryX=1;entryY=0.5;entryDx=0;entryDy=0;exitX=0;exitY=0.5;exitDx=0;exitDy=0;" parent="1" source="bSjY6kH0Yjt8PTvNk5gp-53" target="bSjY6kH0Yjt8PTvNk5gp-7" edge="1"><mxGeometry relative="1" as="geometry"><mxPoint x="10" y="660" as="sourcePoint"/><mxPoint x="-80" y="660.56" as="targetPoint"/></mxGeometry></mxCell><mxCell id="85" value="1" style="resizable=0;html=1;align=right;verticalAlign=bottom;" parent="84" connectable="0" vertex="1"><mxGeometry x="1" relative="1" as="geometry"><mxPoint x="10" as="offset"/></mxGeometry></mxCell><mxCell id="87" value="" style="endArrow=none;html=1;rounded=0;entryX=0.8;entryY=-0.017;entryDx=0;entryDy=0;exitX=0;exitY=1;exitDx=0;exitDy=0;entryPerimeter=0;" parent="1" source="74" target="bSjY6kH0Yjt8PTvNk5gp-7" edge="1"><mxGeometry relative="1" as="geometry"><mxPoint x="20" y="610.0000000000001" as="sourcePoint"/><mxPoint x="-90" y="611.0000000000001" as="targetPoint"/></mxGeometry></mxCell><mxCell id="88" value="N" style="resizable=0;html=1;align=right;verticalAlign=bottom;" parent="87" connectable="0" vertex="1"><mxGeometry x="1" relative="1" as="geometry"><mxPoint y="1" as="offset"/></mxGeometry></mxCell><mxCell id="93" style="edgeStyle=orthogonalEdgeStyle;rounded=0;orthogonalLoop=1;jettySize=auto;html=1;exitX=1;exitY=0.5;exitDx=0;exitDy=0;entryX=0;entryY=0.25;entryDx=0;entryDy=0;endArrow=none;endFill=0;" edge="1" parent="1" source="90" target="bSjY6kH0Yjt8PTvNk5gp-6"><mxGeometry relative="1" as="geometry"><Array as="points"><mxPoint x="40" y="342"/><mxPoint x="40" y="380"/><mxPoint x="200" y="380"/><mxPoint x="200" y="400"/></Array></mxGeometry></mxCell><mxCell id="90" value="Author" style="whiteSpace=wrap;html=1;align=center;" vertex="1" parent="1"><mxGeometry x="-260" y="322" width="100" height="40" as="geometry"/></mxCell><mxCell id="94" value="N" style="resizable=0;html=1;align=right;verticalAlign=bottom;" connectable="0" vertex="1" parent="1"><mxGeometry x="-149" y="341" as="geometry"/></mxCell><mxCell id="95" value="N" style="resizable=0;html=1;align=right;verticalAlign=bottom;" connectable="0" vertex="1" parent="1"><mxGeometry x="240" y="402" as="geometry"/></mxCell><mxCell id="96" value="writes" style="shape=rhombus;perimeter=rhombusPerimeter;whiteSpace=wrap;html=1;align=center;" vertex="1" parent="1"><mxGeometry x="-90" y="312" width="120" height="60" as="geometry"/></mxCell><mxCell id="99" value="" style="shape=requiredInterface;html=1;verticalLabelPosition=bottom;sketch=0;rotation=-75;" vertex="1" parent="1"><mxGeometry x="-367" y="290" width="10" height="20" as="geometry"/></mxCell><mxCell id="100" value="" style="shape=requiredInterface;html=1;verticalLabelPosition=bottom;sketch=0;rotation=-25;" vertex="1" parent="1"><mxGeometry x="-309" y="349" width="10" height="20" as="geometry"/></mxCell><mxCell id="102" value="" style="shape=requiredInterface;html=1;verticalLabelPosition=bottom;sketch=0;rotation=55;" vertex="1" parent="1"><mxGeometry x="-322" y="462" width="10" height="20" as="geometry"/></mxCell><mxCell id="103" value="" style="shape=requiredInterface;html=1;verticalLabelPosition=bottom;sketch=0;rotation=45;" vertex="1" parent="1"><mxGeometry x="232" y="169" width="10" height="20" as="geometry"/></mxCell><mxCell id="104" value="" style="shape=requiredInterface;html=1;verticalLabelPosition=bottom;sketch=0;rotation=135;" vertex="1" parent="1"><mxGeometry x="176" y="171" width="10" height="20" as="geometry"/></mxCell></root></mxGraphModel></diagram></mxfile>